<?xml version="1.0" standalone="no"?>
<!DOCTYPE svg PUBLIC "-//W3C//DTD SVG 20010904//EN"
 "http://www.w3.org/TR/2001/REC-SVG-20010904/DTD/svg10.dtd">
<svg version="1.0" xmlns="http://www.w3.org/2000/svg"
 width="896.000000pt" height="896.000000pt" viewBox="0 0 896.000000 896.000000"
 preserveAspectRatio="xMidYMid meet">
<metadata>
Created by potrace 1.11, written by Peter Selinger 2001-2013
</metadata>
<g transform="translate(0.000000,896.000000) scale(0.100000,-0.100000)"
fill="#000000" stroke="none">
<path d="M4150 8954 c0 -5 -12 -15 -27 -21 -16 -6 -64 -31 -108 -55 -44 -25
-134 -73 -200 -108 -66 -35 -122 -66 -125 -69 -3 -3 -45 -27 -95 -52 -95 -49
-196 -103 -280 -149 -63 -35 -161 -87 -245 -131 -36 -19 -67 -36 -70 -39 -3
-3 -25 -16 -50 -28 -25 -13 -92 -49 -150 -80 -58 -30 -120 -62 -137 -71 -18
-8 -33 -19 -33 -23 0 -4 -7 -8 -15 -8 -9 0 -21 -5 -28 -11 -7 -6 -37 -23 -67
-39 -30 -16 -75 -39 -100 -52 -25 -13 -48 -27 -52 -33 -4 -5 -8 -6 -8 -1 0 5
-6 4 -12 -2 -15 -11 -63 -38 -203 -112 -55 -29 -104 -56 -110 -60 -5 -4 -55
-31 -110 -60 -55 -29 -127 -67 -160 -85 -33 -18 -82 -45 -109 -59 -27 -14 -55
-31 -62 -37 -8 -6 -14 -8 -14 -5 0 4 -12 -1 -27 -12 -16 -11 -62 -36 -103 -57
-41 -21 -77 -40 -80 -44 -3 -3 -53 -31 -112 -61 l-108 -55 0 -782 0 -782 37
16 c21 8 43 19 48 23 6 5 15 9 20 11 15 3 51 18 133 56 40 18 74 33 76 33 2 0
21 8 42 17 22 9 41 17 44 18 3 1 28 12 55 24 145 67 176 81 180 81 5 0 229 97
313 136 29 13 54 24 57 24 2 0 32 13 67 29 35 16 97 43 138 60 41 18 91 41
111 51 20 11 39 17 43 13 3 -3 6 -1 6 5 0 7 8 12 18 12 10 0 29 8 42 17 14 10
25 16 25 15 0 -5 49 15 113 45 31 14 62 27 67 29 10 2 202 86 440 192 432 193
675 351 782 510 21 31 40 59 44 62 3 3 13 23 23 45 9 22 21 47 25 56 10 17 41
130 46 169 3 14 7 41 11 60 12 61 17 1361 5 1373 -7 7 -11 7 -11 1z"/>
<path d="M4797 8953 c-4 -3 -2 -12 3 -18 7 -9 7 -21 0 -39 -5 -14 -6 -26 -2
-26 5 0 7 -15 5 -32 -5 -40 -5 -43 -1 -90 2 -21 0 -38 -4 -38 -4 0 -4 -10 1
-22 4 -13 5 -34 1 -48 -4 -14 -3 -37 1 -51 3 -14 3 -33 -2 -42 -6 -10 -5 -18
1 -22 6 -4 8 -10 5 -15 -3 -5 -5 -29 -5 -52 0 -24 1 -63 1 -88 1 -25 0 -49 -1
-55 -1 -5 -1 -12 0 -15 6 -15 5 -60 -2 -60 -4 0 -4 -10 1 -22 5 -13 5 -32 1
-43 -4 -11 -5 -24 -3 -28 9 -15 9 -77 0 -77 -4 0 -5 -5 -1 -11 4 -7 6 -37 5
-68 -2 -70 -2 -70 -2 -106 1 -16 1 -37 1 -45 -1 -40 9 -211 14 -256 11 -85 34
-184 47 -199 5 -5 9 -16 9 -25 0 -24 58 -129 107 -192 36 -47 104 -111 193
-181 40 -32 162 -103 268 -157 64 -33 122 -65 129 -70 7 -6 16 -10 21 -10 4 0
27 -9 49 -20 57 -27 183 -83 488 -215 143 -62 281 -122 307 -134 43 -19 95
-41 108 -46 11 -4 89 -39 158 -71 40 -19 75 -34 77 -34 3 0 44 -18 91 -40 47
-22 92 -40 100 -40 8 0 14 -4 14 -10 0 -5 6 -10 14 -10 7 0 49 -16 92 -36 94
-43 144 -64 147 -62 1 1 13 -5 27 -12 14 -8 27 -15 30 -16 5 -1 56 -23 155
-68 28 -13 79 -36 115 -51 36 -15 90 -39 120 -53 30 -13 71 -31 90 -40 19 -8
38 -17 43 -19 4 -2 7 349 7 780 0 739 -1 785 -17 790 -10 3 -40 19 -68 35 -27
15 -90 50 -140 77 -49 26 -112 60 -140 75 -27 15 -88 48 -135 73 -114 61 -302
162 -370 199 -30 17 -89 48 -130 70 -127 68 -241 130 -320 172 -41 23 -89 48
-105 56 -17 8 -32 17 -35 20 -3 3 -21 13 -40 22 -19 10 -66 35 -105 56 -38 21
-124 67 -190 102 -66 35 -137 74 -157 87 -21 13 -40 23 -44 23 -3 0 -53 27
-112 59 -59 32 -138 75 -177 96 -38 20 -97 51 -130 69 -85 46 -179 97 -233
126 -26 14 -85 46 -132 71 -47 26 -119 65 -161 87 -42 23 -79 39 -82 35z"/>
<path d="M4145 6720 c-4 -6 -11 -8 -16 -5 -5 4 -9 1 -9 -4 0 -6 -4 -11 -10
-11 -7 0 -367 -140 -475 -185 -11 -5 -23 -9 -26 -9 -3 -1 -28 -11 -55 -23 -27
-12 -87 -36 -134 -54 -47 -17 -98 -38 -115 -45 -16 -7 -151 -61 -300 -119
-148 -59 -284 -113 -302 -121 -17 -8 -73 -30 -125 -49 -51 -20 -102 -40 -113
-45 -11 -5 -135 -55 -275 -110 -312 -124 -396 -157 -437 -176 -17 -8 -34 -14
-38 -14 -4 0 -21 -6 -38 -14 -18 -8 -61 -26 -97 -40 -36 -14 -78 -30 -95 -37
-16 -7 -32 -13 -35 -14 -3 -1 -18 -7 -33 -13 -16 -7 -30 -12 -31 -12 -2 0 -21
-8 -42 -17 -22 -9 -41 -17 -44 -18 -3 0 -38 -14 -77 -29 l-73 -29 0 -759 0
-758 24 0 c14 0 28 5 31 10 4 6 10 8 14 6 4 -3 23 -1 42 4 19 5 45 11 59 14
14 2 48 10 75 16 28 6 59 14 70 16 11 3 31 7 45 10 14 3 43 10 65 16 22 5 49
11 60 13 20 3 107 23 224 51 35 9 73 17 85 19 12 1 28 5 36 8 12 5 135 32 240
54 43 9 55 11 55 13 0 1 11 3 25 5 14 2 75 15 135 30 153 36 197 46 220 51 11
2 29 6 40 8 11 2 38 9 60 14 22 6 51 13 65 16 14 2 45 9 70 14 25 6 61 13 80
16 19 3 46 8 60 10 14 3 41 7 60 10 19 3 46 8 60 11 14 3 39 7 55 10 48 7 87
15 130 27 22 5 48 12 57 14 10 2 26 6 36 8 60 14 235 98 292 140 65 49 158
148 205 217 70 105 142 273 171 402 2 9 6 27 9 40 3 12 7 33 10 47 3 14 7 34
9 45 10 53 17 107 31 240 4 33 8 62 11 64 2 2 -1 12 -7 22 -5 11 -6 19 -1 19
5 0 10 210 11 489 2 459 -1 528 -24 491z"/>
<path d="M4804 6715 c3 -8 1 -15 -4 -15 -5 0 -5 -12 0 -28 4 -16 4 -36 -1 -45
-6 -10 -5 -18 1 -22 6 -4 8 -10 5 -15 -3 -5 -5 -29 -5 -52 0 -24 1 -63 1 -88
1 -25 0 -49 -1 -55 -1 -5 -1 -12 0 -15 6 -15 5 -60 -2 -60 -4 0 -4 -10 1 -22
5 -13 5 -32 1 -43 -4 -11 -5 -24 -3 -28 8 -14 9 -77 1 -77 -4 0 -4 -10 0 -22
7 -21 8 -69 2 -93 -1 -5 -1 -12 0 -15 6 -15 4 -73 -3 -77 -4 -2 -5 -9 -1 -14
3 -5 7 -62 9 -127 3 -64 6 -138 9 -164 6 -59 17 -157 22 -183 2 -10 6 -37 10
-60 5 -36 12 -68 45 -197 12 -49 67 -187 85 -215 8 -13 12 -23 9 -23 -8 0 62
-108 104 -160 59 -73 132 -140 190 -173 20 -12 38 -24 41 -27 18 -19 173 -82
264 -106 78 -21 220 -49 350 -69 21 -3 48 -7 60 -10 12 -3 32 -7 46 -9 44 -8
111 -23 255 -56 140 -32 292 -67 330 -75 11 -2 49 -10 85 -19 36 -8 90 -19
120 -26 30 -6 62 -14 70 -17 8 -3 24 -7 35 -9 11 -1 63 -12 115 -24 52 -13
113 -26 135 -31 22 -5 49 -11 60 -14 25 -6 58 -13 88 -20 12 -2 34 -7 49 -11
15 -3 30 -5 33 -5 2 0 19 -5 37 -10 48 -15 69 -19 105 -23 17 -2 35 -6 40 -9
5 -4 25 -9 44 -12 19 -3 50 -10 69 -15 19 -5 47 -11 62 -14 15 -2 32 -7 38
-11 7 -4 10 243 10 759 l0 765 -22 7 c-12 3 -37 13 -57 22 -20 9 -38 16 -41
17 -5 0 -46 16 -105 40 -16 7 -73 29 -125 50 -52 20 -106 42 -120 48 -14 6
-27 11 -30 12 -3 1 -18 7 -35 14 -16 6 -48 18 -70 27 -22 9 -53 22 -70 29 -16
7 -203 81 -415 165 -432 170 -408 160 -472 189 -26 12 -54 21 -61 21 -7 0 -17
4 -22 8 -6 4 -48 23 -95 41 -158 62 -185 72 -207 82 -13 5 -33 13 -45 18 -13
4 -35 13 -50 20 -57 23 -76 30 -193 76 -66 26 -133 53 -150 60 -60 27 -160 66
-176 70 -8 2 -35 12 -60 23 -24 11 -82 34 -129 52 -47 18 -98 39 -115 46 -112
48 -157 63 -151 49z"/>
<path d="M4800 3995 c-7 -8 -8 -15 -4 -15 10 0 10 -63 -1 -79 -3 -6 -3 -11 2
-11 4 0 8 -11 8 -25 0 -14 -4 -25 -8 -25 -4 0 -4 -7 1 -16 5 -9 6 -32 2 -50
-4 -18 -5 -35 -2 -38 7 -8 7 -110 -1 -122 -3 -6 -2 -16 3 -23 4 -8 4 -25 0
-40 -4 -14 -4 -35 0 -46 4 -11 4 -32 -1 -47 -4 -14 -5 -29 -2 -31 2 -3 6 -67
8 -144 4 -131 10 -226 20 -303 3 -19 7 -51 10 -70 46 -332 182 -601 369 -729
80 -55 197 -110 270 -126 11 -2 39 -9 61 -14 84 -20 152 -27 355 -36 69 -3
172 -7 230 -10 58 -4 152 -8 210 -10 58 -2 105 -4 105 -5 0 -1 45 -3 100 -5
55 -2 159 -7 230 -10 72 -3 175 -8 230 -10 55 -2 147 -6 205 -9 58 -3 164 -8
235 -11 249 -11 320 -15 353 -18 l32 -3 -2 785 -3 785 -75 12 c-119 21 -134
23 -160 29 -14 3 -43 8 -65 11 -22 3 -49 7 -60 9 -11 2 -74 13 -140 25 -66 12
-133 24 -150 27 -16 3 -39 7 -50 8 -11 2 -63 11 -115 20 -52 9 -104 18 -115
20 -11 2 -47 8 -80 13 -33 6 -73 13 -90 16 -30 5 -68 12 -115 21 -14 3 -41 7
-60 10 -19 3 -46 7 -60 10 -13 2 -40 7 -60 10 -20 3 -47 7 -60 10 -14 3 -38 7
-55 10 -16 3 -42 7 -57 10 -16 3 -40 7 -55 10 -37 7 -92 16 -123 21 -14 2 -41
7 -60 10 -19 4 -42 8 -50 9 -8 1 -31 5 -50 8 -19 4 -48 9 -65 12 -43 7 -97 16
-120 21 -82 14 -214 36 -235 39 -14 2 -36 7 -50 10 -14 3 -41 7 -60 10 -19 3
-46 7 -60 10 -14 3 -38 8 -55 10 -40 7 -135 24 -160 29 -11 2 -42 7 -68 10
-27 4 -59 9 -70 12 -23 4 -57 11 -109 19 -17 3 -35 8 -39 10 -3 3 -12 -2 -19
-10z"/>
<path d="M4109 3996 c-2 -2 -22 -6 -44 -9 -22 -3 -50 -8 -61 -10 -21 -5 -69
-14 -126 -23 -45 -7 -81 -13 -108 -18 -14 -3 -41 -7 -60 -10 -19 -3 -48 -8
-65 -11 -16 -3 -57 -10 -90 -16 -33 -6 -71 -12 -85 -15 -14 -2 -41 -7 -60 -10
-19 -2 -48 -8 -65 -11 -16 -4 -39 -8 -50 -9 -11 -1 -33 -5 -50 -8 -16 -4 -46
-9 -65 -12 -30 -4 -163 -28 -225 -40 -11 -2 -38 -6 -60 -9 -22 -3 -47 -7 -55
-10 -8 -2 -33 -6 -55 -10 -38 -5 -86 -13 -130 -21 -62 -12 -255 -45 -285 -50
-19 -2 -46 -7 -60 -10 -13 -3 -38 -7 -55 -10 -16 -2 -41 -6 -55 -9 -14 -3 -41
-8 -60 -11 -50 -8 -72 -11 -195 -33 -60 -11 -126 -22 -145 -25 -19 -3 -60 -10
-90 -15 -30 -6 -66 -13 -80 -16 -13 -3 -40 -7 -60 -10 -20 -3 -45 -7 -57 -9
-12 -3 -43 -8 -70 -12 -52 -9 -62 -11 -65 -13 -2 -1 -19 -4 -38 -6 -19 -2 -48
-6 -65 -10 -39 -8 -97 -17 -112 -18 -10 0 -13 -164 -13 -784 0 -430 3 -783 8
-784 38 -3 82 -3 82 1 0 3 28 5 63 6 83 1 354 13 677 29 63 3 160 8 215 10
231 11 337 15 450 21 66 3 158 7 205 9 93 4 325 15 405 20 28 1 68 6 90 10 48
8 126 24 140 29 6 1 30 8 55 15 83 24 205 90 274 151 72 63 186 213 186 246 0
8 4 14 9 14 5 0 12 10 16 23 4 12 9 27 10 32 2 6 13 37 26 70 26 73 56 189 65
253 3 26 7 49 9 52 3 5 7 43 21 176 3 27 8 244 11 482 l5 432 -29 0 c-16 0
-32 -2 -34 -4z"/>
<path d="M1150 1018 l0 -738 28 -1 c15 0 36 -2 47 -4 11 -2 43 -7 70 -10 28
-3 64 -7 80 -10 17 -2 50 -7 75 -10 25 -3 54 -7 65 -9 11 -2 49 -7 85 -11 36
-3 79 -9 95 -11 17 -3 46 -7 65 -9 19 -2 51 -6 70 -9 86 -13 235 -32 315 -40
17 -2 46 -6 65 -9 19 -3 62 -9 95 -12 33 -4 67 -8 75 -10 8 -3 38 -7 65 -10
28 -3 86 -10 130 -16 44 -6 94 -13 110 -15 17 -2 53 -6 80 -10 28 -3 64 -8 80
-10 17 -2 48 -6 70 -9 35 -5 59 -8 145 -20 8 -1 40 -5 70 -9 30 -3 71 -9 90
-12 117 -20 351 -9 425 20 5 2 12 3 15 3 3 1 32 15 65 33 115 62 192 137 267
261 32 53 85 174 92 212 2 6 10 37 19 67 9 30 18 71 21 90 3 19 8 46 11 60 3
14 8 45 11 70 2 25 7 61 10 80 4 19 8 217 11 440 l4 406 -1510 -1 -1511 0 0
-737z"/>
<path d="M4789 1745 c-4 -34 9 -467 15 -472 2 -2 1 -16 -3 -31 -4 -15 -4 -42
0 -60 4 -17 3 -35 -2 -38 -5 -3 -7 -9 -4 -14 3 -5 8 -47 10 -93 16 -344 99
-634 228 -794 33 -41 133 -133 144 -133 7 0 13 -3 13 -8 0 -8 110 -62 138 -67
9 -2 17 -4 17 -5 0 -2 24 -8 75 -19 45 -9 296 -8 336 2 12 3 45 8 75 12 30 3
61 8 69 10 8 2 42 7 75 10 33 4 71 8 85 10 14 2 48 6 76 9 28 4 60 8 71 10 11
3 44 7 74 11 67 7 126 15 159 20 14 2 50 7 80 10 30 3 67 8 81 11 15 2 45 6
68 9 23 3 60 8 84 11 23 3 58 7 77 9 73 9 110 14 147 19 56 9 123 17 163 21
19 2 51 6 70 9 19 3 58 8 85 12 28 3 59 8 70 9 27 4 105 14 163 21 26 3 58 7
72 10 35 6 96 14 154 18 27 3 52 8 57 13 5 5 8 325 7 739 l-3 729 -1512 0
c-1030 0 -1513 -3 -1514 -10z"/>
</g>
</svg>
