<svg id="Warstwa_1" data-name="Warstwa 1" xmlns="http://www.w3.org/2000/svg" viewBox="0 0 20.7 27.81"><defs><style>.cls-1{fill:#fff;fill-rule:evenodd;}</style></defs><path class="cls-1" d="M11.33,3.54V0L20.7,5.05V9.9L16,7.83C12.39,6.27,11.33,5.94,11.33,3.54Z"/><path class="cls-1" d="M9.37,3.54V0L0,5.05V9.9L4.73,7.83C8.31,6.27,9.37,5.94,9.37,3.54Z"/><path class="cls-1" d="M11.33,9.29V6.93l9.37,3.73v4.72l-5.44-1.23C13.63,13.82,11.33,14,11.33,9.29Z"/><path class="cls-1" d="M9.37,9.29V6.93L0,10.66v4.72l5.44-1.23C7.07,13.82,9.37,14,9.37,9.29Z"/><path class="cls-1" d="M11.33,17.17V15.38L20.7,17v4.86l-6.37-.29C12.17,21.46,11.33,20.19,11.33,17.17Z"/><path class="cls-1" d="M9.37,17.17V15.38L0,17v4.86l6.36-.29C8.53,21.46,9.37,20.19,9.37,17.17Z"/><path class="cls-1" d="M11.33,23.86l-.05-1.5H20.7v4.57l-6.54.85C12.12,28.06,11.28,26.55,11.33,23.86Z"/><path class="cls-1" d="M9.37,23.86l0-1.5H0v4.57l6.54.85C8.57,28.06,9.41,26.55,9.37,23.86Z"/></svg>