<svg id="Warstwa_1" data-name="Warstwa 1" xmlns="http://www.w3.org/2000/svg" viewBox="0 0 93.94 27.81"><defs><style>.cls-1{fill:#fff;}.cls-1,.cls-3{fill-rule:evenodd;}.cls-2,.cls-3{fill:#fdfeff;}</style></defs><path id="OZBUD" class="cls-1" d="M39.34,7.71c-3.29,0-5.53,2-5.53,4.86s2.07,4.72,5.35,4.72,5.58-1.78,5.58-4.89c0-2.64-2-4.69-5.4-4.69Zm-.06,1.35a3.18,3.18,0,0,1,3.22,3.41,3.23,3.23,0,1,1-6.45.07,3.18,3.18,0,0,1,3.23-3.48Zm7.95,8.07H56v-1.4h-6v-.05L56,8.85v-1h-8.2v1.4h5.43v.05l-6,6.89v.93Zm12,0c.53.05,1.43.12,2.61.12,2.12,0,3.49-.29,4.32-.87a2.25,2.25,0,0,0,1.12-1.91c0-1.28-1.12-2-2.35-2.3v0c1.26-.38,1.94-1.16,1.94-2a1.93,1.93,0,0,0-1.21-1.74,6.72,6.72,0,0,0-3.34-.59A22.22,22.22,0,0,0,59.22,8v9.13Zm2.11-8A7.22,7.22,0,0,1,62.54,9c1.34,0,2.17.4,2.17,1.27s-.83,1.33-2.29,1.33H61.33V9.11Zm0,3.77h1.05c1.47,0,2.64.44,2.64,1.52S63.81,16,62.45,16a8.66,8.66,0,0,1-1.12,0v-3Zm9.26-5v5.31c0,2.92,1.74,4.12,4.44,4.12s4.64-1.27,4.64-4.13V7.86H77.55v5.41c0,1.81-.92,2.65-2.46,2.65s-2.38-.84-2.38-2.65V7.86Zm13,9.25c.69.07,1.63.12,2.87.12A9.19,9.19,0,0,0,91.68,16a4.32,4.32,0,0,0,1.81-3.68,3.82,3.82,0,0,0-1.81-3.41,8.36,8.36,0,0,0-4.75-1.08A27.67,27.67,0,0,0,83.54,8v9.13Zm2.13-7.9a7.82,7.82,0,0,1,1.45-.1c2.66,0,4.15,1.17,4.13,3.22,0,2.36-1.64,3.57-4.41,3.55a10.13,10.13,0,0,1-1.17,0Z"/><path id="BUDOWNICTWO" class="cls-1" d="M33.58,25.19a10.27,10.27,0,0,0,1.23.07,3.35,3.35,0,0,0,2-.45,1.16,1.16,0,0,0,.53-1,1.26,1.26,0,0,0-1.11-1.17h0a1.14,1.14,0,0,0,.91-1,1,1,0,0,0-.57-.89,3,3,0,0,0-1.57-.3,9,9,0,0,0-1.45.1v4.66Zm1-4.08a2.43,2.43,0,0,1,.57,0c.63,0,1,.2,1,.65s-.39.68-1.08.68h-.51V21.11Zm0,1.92h.5c.69,0,1.24.23,1.24.78s-.57.79-1.21.79a3.87,3.87,0,0,1-.53,0V23Zm3.94-2.56v2.71a1.86,1.86,0,0,0,2.08,2.1,1.93,1.93,0,0,0,2.19-2.11v-2.7h-1v2.76c0,.93-.43,1.36-1.15,1.36s-1.12-.43-1.12-1.36V20.47Zm5.67,4.72a11.31,11.31,0,0,0,1.35.07A4,4,0,0,0,48,24.61a2.3,2.3,0,0,0,.85-1.89A2,2,0,0,0,48,21a3.66,3.66,0,0,0-2.23-.55,12.21,12.21,0,0,0-1.6.1v4.66Zm1-4a5,5,0,0,1,.68,0c1.26,0,2,.59,2,1.64s-.77,1.82-2.08,1.82a3,3,0,0,1-.55,0V21.15Zm7.12-.76a2.43,2.43,0,0,0-2.6,2.48,2.35,2.35,0,0,0,2.52,2.41,2.4,2.4,0,0,0,2.63-2.49,2.35,2.35,0,0,0-2.55-2.4Zm0,.69a1.57,1.57,0,0,1,1.51,1.74,1.53,1.53,0,1,1-3,0,1.57,1.57,0,0,1,1.52-1.78Zm5.63,4.13L58.54,23c.16-.54.27-1,.37-1.51h0a14.91,14.91,0,0,0,.3,1.51l.57,2.23h1.08l1.47-4.74h-1l-.57,2.14c-.14.58-.27,1.12-.37,1.64h0c-.08-.51-.19-1-.33-1.6l-.55-2.18h-1l-.6,2.14c-.15.6-.31,1.16-.4,1.66h0c-.09-.47-.22-1.08-.36-1.65l-.52-2.15H55.48l1.35,4.74Zm6.27,0v-1.7c0-.78,0-1.41-.05-2h0a16.49,16.49,0,0,0,1,1.63l1.43,2.09h1V20.47h-.93v1.65c0,.72,0,1.33.09,2h0a12.7,12.7,0,0,0-.94-1.59l-1.41-2H63.26v4.74ZM69,20.47v4.74h1V20.47Zm6.16,3.91a3.06,3.06,0,0,1-1.09.18,1.68,1.68,0,0,1-1.91-1.71,1.7,1.7,0,0,1,1.92-1.74,3,3,0,0,1,1.07.18l.22-.69a3.57,3.57,0,0,0-1.33-.21c-1.68,0-2.93.94-2.93,2.5s1.06,2.39,2.8,2.39a3.74,3.74,0,0,0,1.41-.22l-.16-.68Zm2.48.83h1v-4h1.58v-.72H76.09v.72h1.56v4Zm5.72,0L84,23c.16-.54.27-1,.37-1.51h0a14.91,14.91,0,0,0,.3,1.51l.57,2.23h1.08l1.47-4.74h-1l-.57,2.14c-.14.58-.27,1.12-.37,1.64h0c-.08-.51-.19-1-.33-1.6l-.55-2.18h-1l-.6,2.14c-.15.6-.31,1.16-.4,1.66h0c-.09-.47-.22-1.08-.36-1.65L82,20.47H80.94l1.35,4.74ZM91,20.39a2.43,2.43,0,0,0-2.6,2.48,2.35,2.35,0,0,0,2.52,2.41,2.4,2.4,0,0,0,2.63-2.49A2.35,2.35,0,0,0,91,20.39Zm0,.69a1.57,1.57,0,0,1,1.51,1.74,1.53,1.53,0,1,1-3,0A1.57,1.57,0,0,1,91,21.08Z"/><path class="cls-1" d="M11.33,3.54V0L20.7,5.05V9.9L16,7.83C12.39,6.27,11.33,5.94,11.33,3.54Z"/><path class="cls-1" d="M9.37,3.54V0L0,5.05V9.9L4.73,7.83C8.31,6.27,9.37,5.94,9.37,3.54Z"/><path class="cls-1" d="M11.33,9.29V6.93l9.37,3.73v4.72l-5.44-1.23C13.63,13.82,11.33,14,11.33,9.29Z"/><path class="cls-1" d="M9.37,9.29V6.93L0,10.66v4.72l5.44-1.23C7.07,13.82,9.37,14,9.37,9.29Z"/><path class="cls-1" d="M11.33,17.17V15.38L20.7,17v4.86l-6.37-.29C12.17,21.46,11.33,20.19,11.33,17.17Z"/><path class="cls-1" d="M9.37,17.17V15.38L0,17v4.86l6.36-.29C8.53,21.46,9.37,20.19,9.37,17.17Z"/><path class="cls-1" d="M11.33,23.86l-.05-1.5H20.7v4.57l-6.54.85C12.12,28.06,11.28,26.55,11.33,23.86Z"/><path class="cls-1" d="M9.37,23.86l0-1.5H0v4.57l6.54.85C8.57,28.06,9.41,26.55,9.37,23.86Z"/><path id="R" class="cls-2" d="M90,5.37v-3h1.47a2,2,0,0,1,.68.08.78.78,0,0,1,.37.28.82.82,0,0,1,.13.46.7.7,0,0,1-.23.54,1.23,1.23,0,0,1-.7.28,1,1,0,0,1,.26.15,2.06,2.06,0,0,1,.37.4l.57.82h-.55l-.44-.63a3.86,3.86,0,0,0-.31-.41.77.77,0,0,0-.23-.2.72.72,0,0,0-.2-.09h-.75V5.37Zm.44-1.68h.94a1.45,1.45,0,0,0,.47-.06.51.51,0,0,0,.26-.18A.45.45,0,0,0,92,2.83a.85.85,0,0,0-.54-.14h-1v1Z"/><path id="O" class="cls-3" d="M91.27,1.12a2.71,2.71,0,0,1,2.67,2.74,2.68,2.68,0,1,1-5.35,0,2.71,2.71,0,0,1,2.68-2.74Zm0,.28a2.43,2.43,0,0,1,2.4,2.46,2.41,2.41,0,1,1-4.81,0A2.44,2.44,0,0,1,91.27,1.4Z"/></svg>